<?xml version="1.0" standalone="no"?>
<!DOCTYPE svg PUBLIC "-//W3C//DTD SVG 20010904//EN"
 "http://www.w3.org/TR/2001/REC-SVG-20010904/DTD/svg10.dtd">
<svg version="1.0" xmlns="http://www.w3.org/2000/svg"
 width="512.000000pt" height="512.000000pt" viewBox="0 0 512.000000 512.000000"
 preserveAspectRatio="xMidYMid meet">
<metadata>
Created by potrace 1.14, written by Peter Selinger 2001-2017
</metadata>
<g transform="translate(0.000000,512.000000) scale(0.100000,-0.100000)"
fill="#000000" stroke="none">
<path d="M2647 5043 c-13 -13 -17 -14 -17 -3 0 10 -4 8 -13 -5 -11 -14 -16
-15 -22 -5 -5 9 -4 11 3 6 7 -4 12 -3 12 3 0 5 -9 9 -20 8 -11 -1 -19 -6 -16
-12 2 -7 -2 -12 -10 -12 -7 0 -11 4 -9 8 6 9 -21 20 -29 11 -11 -10 -36 -11
-36 -1 0 5 -5 9 -11 9 -5 0 -8 -4 -5 -9 11 -16 -18 -19 -36 -3 -14 12 -20 12
-33 2 -11 -9 -15 -9 -15 -1 0 7 -5 9 -10 6 -6 -4 -8 -11 -4 -16 7 -13 -19 -7
-28 6 -5 6 -12 5 -20 -4 -10 -10 -10 -12 0 -7 17 10 15 1 -4 -14 -12 -11 -15
-11 -12 0 2 7 -3 15 -11 18 -8 2 -11 0 -8 -5 3 -5 0 -10 -9 -10 -10 0 -12 7
-8 21 6 21 6 21 -9 1 -8 -11 -13 -23 -11 -27 3 -4 -2 -5 -11 -1 -13 4 -14 7
-3 14 9 6 6 8 -10 6 -14 -1 -21 -6 -17 -14 4 -11 0 -11 -18 -2 -12 7 -24 13
-27 13 -3 1 -3 5 -2 11 2 5 0 6 -4 2 -11 -11 -14 -38 -3 -31 5 3 9 0 9 -5 0
-13 -17 -14 -24 -2 -7 11 -24 9 -51 -6 -21 -11 -49 -7 -41 6 3 4 -1 8 -9 8
-12 0 -12 -4 2 -21 18 -20 18 -20 -9 -3 -19 12 -29 14 -34 5 -4 -6 -3 -8 2 -5
6 3 16 -4 23 -16 11 -18 11 -20 0 -9 -14 13 -43 17 -36 4 3 -4 -10 -7 -29 -8
-19 0 -34 3 -34 7 0 9 -27 6 -37 -6 -4 -4 -3 -5 4 -1 6 3 14 2 17 -3 7 -10
-13 -9 -31 2 -6 4 -15 2 -19 -4 -4 -7 -3 -9 3 -6 5 3 10 0 10 -7 0 -8 -6 -12
-14 -9 -7 3 -13 0 -13 -7 0 -6 -5 -8 -11 -4 -8 4 -7 9 2 15 7 4 10 12 5 16 -5
4 -11 2 -13 -5 -3 -6 -9 -10 -14 -7 -5 4 -6 -1 -3 -10 5 -11 2 -14 -12 -8 -12
4 -15 3 -10 -5 5 -9 1 -9 -18 -2 -16 6 -27 6 -31 -1 -4 -5 -11 -7 -16 -4 -5 3
-6 -1 -3 -10 5 -11 2 -14 -12 -8 -13 5 -15 3 -9 -8 4 -8 5 -11 0 -7 -4 4 -15
2 -24 -5 -14 -11 -14 -10 -2 6 15 19 2 24 -17 5 -9 -9 -12 -9 -12 3 -1 10 -3
9 -11 -4 -6 -9 -14 -15 -19 -12 -5 3 -12 0 -16 -6 -4 -8 -3 -9 4 -5 7 4 12 2
12 -3 0 -6 -18 -14 -40 -17 -33 -5 -38 -9 -29 -21 10 -11 8 -12 -6 -7 -14 6
-16 4 -10 -6 5 -8 4 -11 -3 -6 -6 4 -10 12 -8 19 1 7 1 9 -1 4 -3 -4 -9 -5
-13 -2 -5 3 -12 0 -16 -6 -5 -8 -3 -9 7 -4 11 6 12 5 2 -5 -10 -11 -15 -11
-29 1 -16 13 -16 12 -6 -7 11 -21 9 -22 -22 -20 -19 1 -32 -2 -30 -6 3 -5 1
-8 -4 -8 -5 0 -15 -11 -22 -25 -7 -14 -15 -23 -18 -20 -3 2 1 11 8 20 13 16 3
20 -18 7 -7 -5 -10 -16 -6 -28 6 -18 6 -18 -8 -1 -13 17 -15 17 -27 3 -9 -11
-10 -16 -2 -16 6 0 3 -8 -6 -18 -12 -12 -21 -14 -25 -8 -5 7 -8 7 -9 1 0 -5
-4 -1 -9 10 -8 18 -9 18 -9 2 -1 -10 -5 -15 -11 -12 -5 3 -7 0 -4 -8 3 -8 -3
-20 -12 -28 -12 -9 -15 -10 -10 -1 4 6 2 12 -3 12 -10 0 -15 -14 -12 -32 0 -5
-4 -8 -10 -8 -6 0 -8 10 -5 23 3 12 3 16 0 9 -3 -6 -10 -10 -14 -7 -5 3 -7 -3
-5 -14 2 -13 -1 -18 -9 -15 -8 3 -16 -4 -19 -15 -3 -13 -13 -21 -27 -21 -11 0
-19 -4 -16 -8 2 -4 0 -14 -6 -22 -8 -12 -9 -12 -4 3 3 9 1 17 -5 17 -6 0 -7 6
-3 13 4 7 3 9 -2 4 -5 -5 -9 -16 -10 -25 0 -9 -4 -25 -9 -35 -7 -17 -8 -17
-21 0 -13 17 -13 17 -15 -2 -1 -11 -1 -23 -1 -26 1 -3 -6 -6 -13 -6 -11 0 -12
4 -4 13 6 8 6 14 0 18 -13 8 -19 -4 -16 -33 2 -23 1 -23 -13 -5 -13 18 -14 17
-7 -6 7 -22 6 -23 -8 -12 -12 10 -17 10 -23 1 -4 -8 -3 -9 4 -5 7 4 12 2 12
-5 0 -6 -8 -9 -19 -6 -14 3 -18 1 -14 -9 3 -8 10 -11 16 -7 5 3 7 1 4 -4 -4
-6 -20 -10 -36 -9 -17 1 -28 -1 -25 -5 2 -4 1 -9 -3 -12 -5 -2 -3 -3 3 -1 6 1
17 -2 25 -7 12 -8 12 -10 -1 -8 -35 3 -49 -1 -44 -15 4 -10 -2 -16 -17 -18
-13 -2 -29 -14 -36 -28 -7 -14 -18 -26 -25 -26 -7 -1 -17 -2 -22 -3 -5 0 -4
-7 2 -13 7 -10 3 -21 -16 -43 -14 -16 -23 -22 -19 -12 3 9 2 17 -3 17 -6 0
-10 -5 -10 -11 0 -5 -6 -7 -12 -3 -7 4 -4 -3 7 -16 l20 -23 -22 12 c-23 12
-43 -2 -22 -15 8 -5 9 -3 4 6 -5 9 -4 11 4 6 15 -10 4 -27 -13 -20 -8 3 -17 0
-21 -5 -3 -6 -10 -9 -15 -6 -5 3 -11 1 -14 -4 -7 -11 13 -9 33 3 9 6 12 5 7
-2 -3 -5 -3 -12 1 -15 5 -2 3 -3 -3 -1 -7 1 -21 -4 -32 -11 -10 -8 -22 -11
-26 -8 -3 3 -6 1 -6 -6 0 -7 7 -11 15 -8 8 4 17 1 21 -5 4 -7 3 -8 -4 -4 -7 4
-12 2 -12 -4 0 -7 -6 -10 -14 -7 -18 7 -34 -12 -31 -35 2 -11 -2 -15 -11 -11
-8 3 -11 10 -7 16 3 6 1 7 -5 3 -9 -5 -8 -13 3 -30 13 -20 13 -23 0 -23 -8 0
-11 5 -8 11 3 6 2 7 -3 3 -5 -5 -9 -16 -9 -25 0 -10 -7 -16 -19 -15 -13 1 -15
-2 -7 -10 17 -17 13 -31 -4 -17 -9 7 -18 10 -22 6 -3 -3 -1 -6 5 -6 7 0 12 -5
12 -11 0 -5 -6 -7 -12 -3 -8 5 -7 0 2 -11 14 -17 14 -18 -10 -5 -23 12 -24 12
-11 -3 10 -13 11 -20 2 -30 -8 -10 -7 -17 2 -27 10 -12 9 -12 -6 -1 -14 11
-15 16 -5 30 11 14 11 14 -3 3 -9 -6 -15 -23 -14 -36 3 -19 -1 -23 -13 -18
-15 5 -15 4 -3 -11 12 -15 12 -17 -4 -11 -12 5 -16 4 -11 -4 3 -6 2 -13 -4
-17 -6 -4 -8 -11 -5 -16 3 -5 -1 -6 -9 -3 -9 3 -16 2 -16 -4 0 -6 6 -13 13
-15 7 -3 6 -6 -5 -6 -9 -1 -20 -6 -24 -13 -5 -7 -3 -8 6 -3 8 5 11 3 8 -6 -3
-8 -13 -13 -23 -11 -9 2 -14 -1 -11 -7 4 -5 2 -12 -3 -16 -6 -3 -8 -12 -5 -20
4 -8 11 -12 17 -8 5 3 7 1 3 -5 -3 -6 -19 -9 -34 -6 l-27 4 25 -15 c23 -13 23
-14 4 -15 -11 0 -21 -7 -21 -15 0 -9 5 -12 12 -7 6 4 -4 -6 -22 -21 -18 -16
-33 -34 -33 -39 0 -6 9 0 19 13 20 24 20 24 18 2 0 -12 -5 -19 -9 -17 -4 3 -8
1 -8 -5 0 -5 -8 -12 -18 -14 -14 -4 -14 -5 3 -6 18 -1 17 -4 -9 -24 -26 -21
-27 -24 -12 -39 14 -14 14 -17 0 -22 -9 -3 -12 -11 -8 -18 6 -10 5 -10 -7 -1
-13 11 -15 8 -11 -20 5 -29 3 -31 -12 -18 -21 18 -21 7 2 -15 16 -17 16 -17
-5 -12 -15 4 -20 2 -16 -8 2 -7 12 -10 20 -7 11 4 14 2 9 -5 -4 -7 -15 -12
-24 -12 -15 0 -15 -2 -2 -10 11 -7 11 -10 2 -10 -7 0 -10 -4 -7 -10 3 -5 2
-10 -3 -10 -6 0 -13 -7 -16 -16 -3 -8 -2 -13 3 -10 17 11 20 -23 3 -36 -10 -8
-13 -8 -9 -1 4 6 2 15 -4 19 -7 4 -9 3 -5 -4 3 -6 2 -13 -2 -16 -13 -8 -7 -47
9 -57 11 -7 11 -9 1 -9 -7 0 -11 -4 -7 -9 3 -5 -1 -15 -8 -23 -8 -7 -12 -19
-9 -27 3 -9 0 -11 -9 -6 -8 5 -5 -2 6 -15 l20 -23 -21 11 c-18 9 -24 8 -35 -6
-12 -15 -12 -16 2 -5 9 7 19 10 22 6 4 -3 -1 -11 -10 -18 -13 -9 -13 -14 -3
-20 9 -6 11 -4 5 5 -5 8 -4 11 3 6 13 -8 5 -36 -12 -36 -7 0 -7 -3 -1 -8 6 -4
11 -13 13 -21 3 -12 0 -12 -13 -1 -13 11 -15 10 -9 -4 4 -10 1 -16 -7 -16 -8
0 -5 -6 7 -15 13 -11 14 -14 4 -13 -11 2 -15 -6 -14 -29 0 -18 -3 -33 -8 -33
-5 0 -2 -7 6 -16 9 -8 21 -12 27 -8 8 4 9 3 5 -4 -4 -7 -19 -10 -34 -6 l-27 5
24 -14 c23 -14 24 -15 5 -20 -16 -4 -16 -5 -1 -6 9 0 17 -5 17 -10 0 -5 -10
-7 -23 -4 -21 4 -21 3 3 -11 14 -8 20 -15 14 -16 -12 0 -24 -29 -28 -67 -2
-12 0 -20 4 -18 4 3 10 -4 13 -16 5 -17 3 -18 -9 -8 -12 10 -13 9 -8 -6 6 -14
4 -16 -6 -10 -9 6 -11 4 -6 -4 5 -7 15 -10 23 -6 13 4 14 3 3 -10 -7 -8 -9
-15 -5 -15 4 0 2 -6 -4 -14 -10 -11 -8 -17 6 -26 16 -10 16 -11 -5 -6 -19 4
-21 2 -11 -10 6 -7 16 -11 22 -7 6 3 7 1 3 -5 -4 -6 -14 -8 -24 -5 -13 4 -13
2 3 -10 11 -9 16 -17 11 -17 -5 0 -3 -7 4 -15 11 -13 10 -14 -6 -8 -17 6 -18
5 -4 -12 9 -11 10 -16 3 -11 -7 4 -13 2 -13 -3 0 -6 3 -11 8 -11 4 0 13 -10
21 -22 l14 -23 -24 20 -23 20 17 -28 c17 -26 17 -27 0 -27 -15 0 -15 -2 -4 -9
8 -5 16 -17 17 -25 1 -9 -2 -14 -7 -10 -5 3 -6 11 -3 17 4 7 3 8 -1 4 -11 -9
-16 -37 -7 -36 20 3 32 -2 27 -11 -4 -6 -12 -7 -18 -4 -7 4 -8 3 -4 -2 5 -5
13 -9 18 -9 5 0 9 -3 9 -7 0 -5 0 -10 0 -13 0 -3 -10 -1 -22 5 -20 10 -21 9
-6 -2 9 -7 25 -19 35 -26 16 -11 16 -11 -4 -2 -15 7 -24 7 -28 0 -4 -6 -1 -9
6 -8 7 2 13 -8 14 -22 1 -14 7 -35 13 -47 18 -33 14 -38 -9 -12 l-21 24 15
-24 c9 -13 13 -29 11 -36 -3 -7 0 -16 6 -20 8 -5 7 -11 -2 -23 -12 -14 -10
-14 12 -2 21 10 23 10 13 -1 -15 -15 -18 -63 -4 -54 5 3 13 0 17 -6 4 -7 3 -9
-4 -5 -11 7 -11 -40 0 -59 3 -6 4 -18 3 -28 -2 -10 1 -14 7 -10 7 4 9 -2 5
-16 -5 -19 -3 -20 10 -9 14 11 15 11 5 -8 -9 -17 -8 -25 4 -40 14 -18 15 -18
5 3 -11 21 2 43 16 29 4 -3 1 -6 -6 -6 -10 0 -9 -7 4 -26 9 -15 12 -23 6 -20
-6 4 -11 2 -11 -4 0 -6 -4 -9 -8 -6 -5 3 -9 -1 -9 -9 0 -11 5 -11 19 -4 18 10
19 9 3 -14 -14 -22 -14 -25 2 -38 9 -8 14 -9 10 -2 -8 13 18 12 30 -2 4 -4 2
-5 -4 -1 -8 4 -13 1 -13 -8 0 -9 4 -16 8 -16 4 0 8 -9 9 -19 1 -14 -3 -18 -15
-14 -13 4 -14 3 -3 -5 8 -6 10 -15 6 -22 -5 -8 -4 -11 2 -7 6 4 16 -7 23 -23
7 -18 17 -27 24 -23 6 4 4 -2 -4 -12 -9 -11 -10 -16 -2 -11 8 5 12 1 12 -13 0
-10 -6 -22 -12 -25 -9 -4 -8 -5 2 -5 32 2 37 -2 35 -25 -2 -17 1 -23 10 -20 7
3 16 0 21 -7 4 -8 3 -10 -4 -5 -19 12 -14 -8 8 -32 12 -12 17 -22 12 -22 -5 0
-9 -7 -9 -15 0 -8 4 -15 9 -15 5 0 6 -5 3 -10 -4 -6 -3 -10 2 -9 19 3 33 -2
33 -12 0 -5 -6 -7 -13 -3 -9 6 -9 5 0 -7 6 -8 12 -17 12 -21 1 -12 9 -14 18
-4 5 5 2 6 -6 1 -10 -5 -12 -4 -7 4 11 18 28 2 17 -16 -6 -11 -4 -21 5 -31 8
-7 12 -18 9 -23 -4 -5 1 -9 10 -9 15 0 15 2 1 22 -19 26 -20 38 -5 38 5 0 8
-4 5 -9 -3 -4 1 -17 8 -27 11 -15 12 -22 3 -33 -10 -12 -9 -13 2 -6 11 6 13 4
8 -9 -5 -13 -3 -17 6 -13 16 6 41 -29 27 -38 -13 -8 -13 -25 1 -25 5 0 7 5 4
10 -3 6 1 10 10 10 13 0 14 -4 4 -23 -9 -18 -9 -20 2 -9 16 15 29 16 29 1 0
-5 -4 -7 -10 -4 -5 3 -10 -1 -10 -10 0 -10 5 -13 12 -9 7 5 9 2 5 -9 -4 -11
-2 -14 9 -10 10 3 14 -2 14 -18 0 -22 0 -22 15 -3 14 18 14 17 5 -10 -12 -33
-6 -46 13 -26 10 10 9 11 -2 5 -10 -5 -12 -4 -7 4 11 16 26 3 19 -16 -5 -12
-3 -14 8 -8 11 7 11 5 -1 -10 -9 -11 -10 -16 -3 -11 8 4 13 2 13 -4 0 -7 7 -9
16 -6 8 3 12 2 9 -3 -3 -5 0 -13 6 -16 5 -4 8 -13 5 -21 -3 -8 1 -17 9 -20 8
-4 15 -12 15 -20 0 -8 5 -14 10 -14 14 0 -5 36 -22 43 -8 4 -7 6 4 6 9 1 20
-8 23 -19 4 -11 11 -18 16 -14 5 3 9 2 8 -3 -5 -31 2 -52 17 -46 10 4 17 -1
21 -16 3 -11 10 -21 15 -21 5 0 6 6 2 13 -5 8 -2 8 9 -2 18 -15 23 -26 7 -16
-13 8 -13 -5 0 -25 6 -10 10 -11 10 -2 0 6 5 12 11 12 5 0 8 -4 4 -9 -3 -5 -1
-13 5 -16 6 -4 7 -12 3 -19 -4 -7 0 -3 11 9 l19 20 -7 -22 c-6 -19 -4 -23 16
-24 13 0 17 -3 11 -6 -7 -2 -13 -9 -13 -14 0 -6 4 -7 10 -4 5 3 10 1 10 -4 0
-12 26 -15 33 -3 2 4 2 2 1 -5 -2 -7 1 -15 7 -19 6 -3 8 -12 6 -18 -3 -7 1
-13 9 -13 7 0 10 5 7 10 -4 6 -1 7 6 3 7 -5 10 -14 7 -22 -3 -9 0 -11 11 -7
12 5 15 2 11 -13 -4 -14 0 -20 13 -20 12 0 15 4 9 10 -6 6 -10 14 -10 19 0 5
7 1 16 -8 9 -8 13 -22 10 -31 -3 -9 -2 -12 5 -9 5 4 21 0 34 -9 18 -12 25 -12
28 -3 3 6 4 2 4 -10 -1 -19 -3 -20 -17 -9 -27 23 -38 27 -46 15 -4 -7 -3 -9 3
-6 6 4 21 -2 33 -13 16 -14 27 -17 35 -10 13 11 25 4 25 -14 0 -6 -5 -4 -11 4
-9 13 -10 13 -6 0 2 -8 12 -14 22 -12 9 2 14 -1 11 -6 -8 -14 15 -30 42 -27
17 1 21 -2 17 -13 -5 -13 -3 -13 12 -1 11 9 14 10 9 1 -4 -7 -1 -15 9 -18 9
-4 21 -16 25 -28 7 -17 9 -18 9 -3 1 9 6 17 12 17 5 0 8 -4 4 -9 -3 -6 4 -15
15 -21 11 -6 17 -16 14 -22 -4 -7 -3 -8 5 -4 6 4 9 13 5 19 -3 7 5 -1 18 -17
19 -22 27 -26 33 -16 5 8 4 11 -3 6 -6 -3 -14 -1 -18 5 -4 8 -3 9 4 5 7 -4 12
-2 12 5 0 21 13 0 15 -24 1 -12 5 -20 10 -19 4 2 12 -2 17 -10 8 -10 9 -10 5
2 -2 8 -10 14 -16 12 -7 -1 -10 2 -6 7 10 16 35 0 36 -23 0 -11 3 -15 6 -8 2
6 9 12 14 12 6 0 8 -4 5 -9 -3 -5 1 -12 10 -15 8 -3 12 -10 9 -16 -3 -6 1 -7
10 -4 14 6 14 8 -2 21 -17 13 -16 13 3 4 12 -6 25 -7 29 -3 5 4 5 1 1 -5 -4
-7 -3 -13 3 -13 5 0 11 3 14 8 2 4 2 1 0 -7 -4 -15 14 -41 28 -41 5 0 9 5 9
11 0 5 -4 8 -9 4 -5 -3 -12 -1 -15 4 -4 5 1 8 10 7 9 -1 21 -10 26 -19 5 -10
13 -15 19 -12 5 4 9 1 9 -6 0 -8 5 -7 17 2 9 8 14 10 11 4 -3 -5 1 -17 10 -25
14 -13 15 -12 9 3 -3 9 -1 19 5 23 7 5 8 2 3 -6 -6 -10 -4 -12 9 -7 14 6 15 4
5 -16 -6 -12 -8 -19 -4 -15 5 4 15 2 23 -5 13 -9 14 -9 8 1 -5 8 0 12 16 12
19 0 20 -2 8 -11 -12 -9 -12 -10 3 -5 10 3 21 6 23 6 3 0 2 6 -2 13 -5 8 -2 7
9 -2 10 -8 15 -16 12 -19 -9 -10 16 -31 31 -25 8 3 20 0 28 -6 7 -6 16 -8 20
-4 14 15 44 10 41 -7 -2 -12 3 -17 18 -15 12 0 31 -6 42 -14 18 -15 19 -15 7
0 -10 14 -10 18 3 23 10 4 14 2 9 -5 -5 -8 3 -10 24 -7 27 4 30 2 19 -11 -10
-12 -9 -13 2 -6 11 6 13 4 8 -11 -6 -15 -4 -15 11 4 l18 23 21 -21 c23 -21 38
-27 28 -11 -3 5 0 13 6 17 7 4 9 3 6 -2 -3 -6 -2 -16 4 -24 7 -12 9 -11 9 5 0
16 2 17 9 6 7 -11 25 -14 61 -12 33 2 50 -1 46 -8 -4 -5 -1 -13 5 -17 8 -4 9
-3 5 4 -9 16 7 15 22 0 9 -9 12 -9 12 0 0 6 -8 16 -17 21 -10 6 -13 11 -6 11
6 0 15 -5 18 -10 4 -6 11 -7 17 -4 7 5 9 1 5 -9 -3 -10 -2 -17 3 -17 6 0 10 5
10 12 0 6 7 3 16 -8 12 -15 14 -15 11 -2 -4 11 -1 15 11 13 9 -2 21 -4 25 -4
5 -1 6 -5 3 -9 -5 -9 47 -7 63 2 5 4 12 2 16 -3 6 -11 45 -10 45 1 0 4 5 8 11
8 5 0 8 -4 5 -9 -4 -5 2 -8 11 -6 10 2 18 4 18 5 0 1 8 3 18 5 9 2 17 0 17 -4
0 -4 7 -8 15 -8 8 0 12 4 9 9 -3 4 0 8 5 8 6 0 11 -5 11 -12 0 -6 7 -3 15 8
11 14 14 15 9 3 -3 -10 0 -20 7 -25 8 -5 10 -3 4 6 -6 10 -4 12 10 6 15 -5 16
-4 5 9 -16 20 -6 19 14 -1 9 -8 16 -11 16 -5 0 6 5 11 11 11 5 0 7 -6 3 -12
-5 -9 -3 -9 9 1 9 7 14 18 10 24 -3 6 -1 7 5 3 6 -4 9 -13 6 -20 -3 -8 0 -17
7 -22 8 -4 10 -3 5 4 -4 7 -2 20 4 29 10 15 11 16 6 1 -5 -19 20 -33 30 -16 4
7 3 8 -4 4 -7 -4 -12 -2 -12 3 0 17 18 13 29 -6 6 -10 11 -12 11 -5 0 6 7 12
16 12 9 0 12 -5 8 -12 -4 -7 -3 -8 5 -4 6 4 9 12 5 17 -3 6 0 10 7 8 30 -4 38
1 32 18 -6 16 -5 16 12 0 16 -16 19 -17 27 -4 4 8 16 14 26 12 9 -2 21 -4 25
-4 5 -1 5 -7 1 -13 -6 -10 -4 -10 7 -2 8 6 26 11 41 10 21 -1 24 1 16 11 -13
16 -8 16 26 3 16 -6 27 -6 31 1 4 5 11 6 17 3 5 -4 4 4 -2 17 -13 24 -13 24 8
6 15 -14 22 -15 28 -6 5 8 3 10 -6 4 -9 -5 -11 -4 -6 4 4 6 13 8 19 4 19 -12
37 -12 37 -1 0 6 -7 7 -16 4 -8 -3 -12 -2 -9 3 3 6 14 9 25 8 10 -1 17 -4 14
-8 -2 -4 0 -10 6 -14 6 -3 10 4 10 17 0 13 4 19 8 13 4 -5 16 -17 27 -25 20
-15 20 -14 1 8 -19 22 -19 22 3 22 15 0 20 4 15 13 -5 8 -3 8 9 -2 9 -7 14
-18 10 -25 -3 -6 2 -3 13 6 16 14 23 15 34 5 12 -10 12 -9 0 6 -11 15 -11 20
0 30 8 7 11 8 7 1 -4 -7 3 -11 18 -11 14 0 25 3 25 8 0 5 -5 8 -11 6 -6 -1
-14 5 -16 13 -4 12 -3 12 5 2 14 -20 19 -19 37 3 9 11 14 14 10 7 -9 -18 6
-15 22 5 11 14 13 15 11 3 -2 -9 2 -17 7 -18 6 -1 10 1 10 6 0 4 6 16 12 27 8
13 12 15 13 5 0 -11 3 -11 12 -2 18 18 33 15 18 -3 -7 -9 -19 -14 -26 -11 -8
3 -11 0 -7 -9 7 -19 18 -12 55 38 17 23 28 34 25 24 -5 -13 -2 -17 11 -15 10
2 16 -3 14 -10 -1 -8 2 -11 8 -7 8 5 6 12 -4 24 -14 16 -13 17 17 19 75 6 94
16 75 40 -12 14 -10 14 10 3 18 -10 22 -9 22 2 0 8 8 21 17 28 11 10 14 10 9
1 -4 -6 -2 -12 3 -12 6 0 11 6 11 13 0 8 4 7 11 -3 9 -12 10 -11 6 7 -3 13 -1
26 4 29 5 3 8 0 7 -7 -2 -6 3 -14 11 -17 8 -3 11 0 7 7 -4 6 0 11 9 11 9 0 14
4 11 9 -3 5 1 11 9 15 8 3 17 1 20 -5 4 -5 11 -7 16 -3 5 3 7 10 4 15 -4 5 -1
17 5 26 11 17 11 17 6 -1 -5 -14 -2 -17 10 -12 8 3 18 6 20 6 2 0 4 5 4 11 0
5 -5 7 -12 3 -7 -4 -8 -3 -4 4 10 16 39 16 30 -1 -4 -6 3 -3 15 8 13 11 25 19
27 18 2 -2 4 -1 4 2 0 3 0 8 0 12 0 3 -8 0 -18 -8 -10 -8 -8 -4 4 7 13 12 20
25 16 30 -4 4 -1 4 6 0 7 -4 10 -11 8 -15 -3 -4 1 -8 7 -8 8 0 12 12 11 29 -1
16 2 25 8 22 5 -3 7 -12 4 -20 -3 -8 0 -11 10 -7 8 3 13 12 10 20 -3 7 1 16 9
19 8 4 13 10 10 14 -6 10 15 7 33 -4 11 -7 12 -4 3 13 -12 22 -10 24 28 21 15
-1 21 2 16 10 -9 15 13 40 31 33 9 -3 14 1 14 12 0 10 -5 13 -12 9 -7 -5 -8
-3 -3 5 5 9 10 10 18 2 17 -17 24 -13 22 14 -2 14 1 27 5 30 5 3 7 -5 5 -17
-4 -21 -3 -22 9 -5 15 19 31 24 20 5 -4 -7 -3 -8 5 -4 9 6 9 11 1 21 -8 10 -5
19 15 39 27 27 46 36 26 13 -8 -10 -7 -14 4 -14 7 0 14 3 13 6 -2 18 3 31 13
31 5 0 7 -5 3 -12 -4 -7 -3 -8 5 -4 9 6 9 11 0 23 -20 23 10 36 36 15 11 -9
14 -10 8 -2 -7 8 -13 18 -13 23 0 4 6 5 13 1 7 -5 6 0 -3 11 -9 11 -10 16 -2
11 7 -4 12 -2 12 5 0 7 3 10 6 6 9 -9 34 18 34 37 0 8 10 23 23 33 13 10 22
24 19 32 -3 8 0 11 7 7 6 -4 11 -2 11 4 0 6 5 8 12 4 7 -4 8 -3 4 4 -4 7 -2
12 3 12 6 0 11 8 11 18 0 9 5 24 10 32 8 11 9 8 6 -13 -4 -22 -2 -26 8 -18 7
6 11 23 10 39 -1 19 3 29 12 29 11 0 11 -3 1 -16 -11 -14 -10 -14 5 -2 10 7
16 17 13 21 -3 4 2 11 11 14 12 5 14 10 5 20 -15 18 -1 29 17 13 10 -7 13 -8
9 -1 -8 14 16 37 28 26 5 -4 5 -1 1 6 -4 7 -12 10 -17 7 -13 -9 -6 30 10 48 7
9 20 14 29 11 9 -3 6 2 -8 10 l-25 16 35 -5 c34 -5 34 -4 11 9 -20 11 -21 14
-7 19 11 5 15 3 10 -5 -4 -7 -3 -8 5 -4 8 6 9 12 2 20 -8 9 -5 19 10 34 29 32
37 27 9 -6 -24 -26 -24 -26 5 2 20 18 26 30 18 33 -18 6 -16 20 3 27 10 4 13
2 8 -6 -4 -7 -3 -8 4 -4 7 4 12 16 12 27 0 11 4 17 10 14 6 -4 7 1 3 11 -5 13
-3 15 7 9 9 -6 11 -4 5 5 -6 10 -11 9 -22 -5 -7 -11 -13 -14 -13 -9 0 6 5 15
12 22 7 7 8 12 3 12 -4 0 0 9 10 20 10 11 22 17 27 14 6 -4 5 4 -2 16 -6 12
-9 24 -6 28 3 3 6 0 6 -6 0 -7 5 -12 11 -12 6 0 9 5 7 12 -3 7 5 21 17 33 11
11 13 14 3 6 -11 -9 -18 -10 -18 -3 0 6 4 13 9 17 5 3 8 18 5 33 -3 18 -2 23
5 13 5 -8 14 -10 21 -6 10 6 8 12 -6 23 -18 14 -18 14 4 9 13 -3 21 -3 18 0
-3 4 -1 12 4 19 8 8 6 16 -4 27 -14 13 -13 15 6 20 18 5 19 8 8 21 -15 19 0
21 20 4 12 -11 12 -10 2 4 -10 13 -10 17 0 22 7 3 2 3 -11 0 -21 -6 -22 -4
-10 9 8 8 17 13 21 10 4 -2 5 4 1 13 -5 13 -3 15 7 9 8 -5 11 -4 6 3 -3 5 0
13 6 16 7 3 2 3 -12 0 -22 -4 -23 -3 -7 6 14 9 17 20 13 45 -5 28 -2 37 15 45
14 8 18 17 14 28 -4 9 -9 27 -10 38 -2 18 1 21 19 16 20 -5 20 -5 4 12 -22 21
-23 27 -3 20 8 -4 15 -1 15 5 0 6 -5 11 -12 11 -6 0 -8 3 -5 7 4 3 1 13 -6 21
-9 13 -9 14 1 8 19 -11 35 3 21 20 -6 7 -16 11 -23 7 -6 -4 -5 1 2 10 8 9 11
20 8 25 -3 5 1 9 9 9 11 0 12 -5 3 -20 -6 -13 -6 -17 0 -13 6 3 12 3 15 -1 2
-5 2 -2 0 6 -2 7 2 21 9 29 10 12 10 14 1 8 -7 -4 -13 -3 -13 3 0 5 8 15 18
20 11 7 13 10 3 11 -11 0 -11 3 -1 16 8 8 9 14 4 13 -19 -3 -34 1 -34 11 0 5
6 7 14 4 8 -3 17 0 22 7 4 8 3 10 -4 5 -7 -4 -12 -4 -13 1 0 4 -2 18 -3 30 -2
13 1 23 6 23 4 0 8 5 8 11 0 5 -6 7 -12 3 -7 -4 -4 3 7 16 l20 23 -20 -7 c-15
-5 -17 -4 -8 5 6 6 9 18 6 27 -4 9 -2 13 4 9 5 -3 10 0 10 8 0 8 -5 15 -11 15
-6 0 -4 5 4 10 8 5 10 10 4 10 -7 0 -15 7 -18 16 -5 13 -3 14 7 6 10 -8 13 -6
13 8 0 10 -3 17 -6 15 -4 -2 -7 2 -7 10 0 8 4 12 9 9 4 -3 8 0 8 5 0 6 -5 11
-10 11 -7 0 -7 6 0 20 13 25 -5 27 -19 3 -6 -10 -11 -13 -11 -6 0 6 12 21 28
32 19 15 21 19 7 14 -11 -3 -17 -3 -13 2 4 4 2 17 -4 29 -10 19 -9 20 5 8 14
-12 16 -11 14 7 -1 12 -8 21 -17 22 -10 0 -9 3 5 9 12 5 15 9 6 9 -12 1 -12 4
-3 13 15 15 15 28 1 28 -5 0 -8 -4 -5 -9 3 -5 0 -11 -7 -14 -9 -3 -13 2 -12
16 2 13 8 21 16 19 8 -2 11 0 7 4 -4 4 -2 14 5 22 6 9 7 13 2 10 -6 -4 -15 5
-22 18 -6 13 -7 22 -3 19 5 -3 12 0 16 6 4 8 3 9 -4 5 -7 -4 -12 -1 -12 9 0 9
5 13 11 10 6 -4 5 2 -2 13 -7 12 -17 18 -22 15 -5 -3 -4 4 2 14 8 15 7 25 -4
39 -8 11 -14 26 -14 34 0 10 3 8 9 -5 8 -17 8 -16 7 7 -1 23 -5 27 -22 22 -11
-3 -15 -2 -9 3 14 11 24 62 12 69 -4 3 -5 10 -2 16 4 6 2 8 -3 5 -11 -7 -27
18 -26 41 1 35 4 43 12 37 5 -3 13 0 17 6 4 7 3 9 -4 5 -6 -3 -13 -2 -17 4 -4
6 -10 8 -14 6 -4 -3 -6 9 -5 25 2 26 -1 29 -19 23 l-22 -6 22 18 22 19 -32 18
c-23 13 -26 16 -8 11 15 -4 21 -2 17 4 -3 6 -3 12 1 15 5 2 2 2 -4 1 -7 -2
-13 4 -13 12 0 9 5 12 12 8 7 -4 8 -3 4 5 -6 9 -11 9 -22 0 -12 -10 -15 -10
-12 2 2 8 -3 13 -12 11 -12 -3 -13 -1 -2 9 13 14 16 30 5 27 -5 -2 -8 2 -8 7
0 6 3 9 8 7 12 -4 8 16 -5 22 -10 5 -10 7 -1 12 10 4 10 8 0 19 -7 7 -15 11
-18 9 -4 -2 -10 3 -13 12 -5 12 -2 15 11 10 17 -6 17 -5 1 7 -10 8 -15 16 -12
19 3 4 0 9 -7 14 -7 4 -10 3 -5 -4 3 -6 2 -14 -4 -17 -6 -4 -10 -3 -9 2 1 4 0
11 -1 16 -1 4 -3 13 -4 20 -1 6 -8 11 -16 9 -12 -3 -13 -1 -2 9 6 7 12 17 12
22 0 4 -6 5 -12 1 -8 -5 -7 0 2 11 9 11 10 16 3 11 -8 -4 -13 -2 -13 4 0 6 -5
8 -12 4 -7 -4 -8 -3 -4 4 4 6 14 9 24 6 9 -2 7 1 -5 7 -20 10 -29 34 -24 62 1
5 -3 6 -9 2 -6 -3 -7 -11 -4 -17 4 -7 2 -8 -4 -4 -6 4 -8 14 -5 23 5 12 3 14
-8 8 -11 -7 -11 -5 1 10 9 11 10 16 3 11 -12 -6 -18 10 -14 36 0 3 -7 5 -17 3
-27 -4 -43 14 -35 43 4 18 3 23 -6 18 -7 -5 -10 -2 -9 5 2 7 -2 13 -9 14 -6 0
-15 4 -20 9 -5 5 -3 6 5 2 7 -4 12 -1 12 8 0 9 -5 16 -11 16 -8 0 -8 4 0 14
10 12 8 13 -8 9 -15 -4 -21 -1 -21 10 0 8 -6 18 -12 20 -10 4 -10 6 0 6 6 1
12 6 12 12 0 5 -5 7 -11 4 -6 -4 -13 2 -16 14 -3 11 -10 18 -16 14 -7 -4 -8 0
-4 12 8 19 -10 48 -24 39 -5 -3 -9 3 -10 13 0 16 -1 16 -9 -2 -7 -16 -9 -14
-9 15 -1 28 -4 32 -12 20 -8 -12 -10 -9 -6 12 2 15 0 25 -5 22 -4 -3 -11 2
-14 10 -3 9 -10 13 -16 10 -5 -3 -1 -12 9 -20 10 -7 13 -14 7 -14 -15 0 -36
25 -27 33 3 4 1 7 -5 7 -7 0 -12 5 -12 11 0 5 4 8 8 5 5 -3 9 1 9 9 0 8 -4 12
-9 9 -4 -3 -11 2 -14 10 -3 9 -11 16 -16 16 -6 0 -4 -8 3 -17 8 -9 9 -14 2
-10 -6 4 -14 1 -17 -5 -3 -9 -5 -8 -4 2 3 26 -12 70 -24 70 -9 0 -9 -3 0 -12
7 -7 12 -17 12 -22 0 -6 -7 0 -16 12 -8 12 -12 27 -9 32 3 6 2 10 -4 10 -5 0
-12 -6 -14 -12 -3 -7 -6 -3 -6 10 -1 12 -5 22 -10 22 -5 0 -13 9 -16 20 -4 12
-14 20 -23 19 -30 -3 -35 1 -22 16 15 18 -1 20 -19 3 -8 -8 -11 -8 -8 -2 7 12
-16 38 -24 29 -3 -2 -5 8 -5 23 1 15 -4 27 -11 27 -7 0 -18 6 -24 13 -7 6 -17
12 -22 12 -6 0 -16 8 -24 18 -8 9 -12 12 -9 5 4 -6 1 -15 -6 -19 -7 -4 -10 -4
-6 1 4 4 2 17 -4 29 -7 11 -12 24 -11 27 1 3 -9 5 -22 4 -18 -2 -23 1 -20 16
2 10 1 18 -3 18 -20 -3 -32 2 -27 11 4 6 3 10 -2 9 -21 -4 -44 2 -39 10 3 5
-10 18 -30 30 -41 25 -44 25 -40 9 1 -7 1 -10 -1 -5 -3 4 -8 5 -12 2 -5 -2 -7
7 -5 20 1 14 -2 28 -7 31 -5 3 -8 0 -7 -7 2 -6 -3 -14 -10 -16 -7 -3 -12 -1
-11 4 4 20 -2 34 -11 28 -6 -4 -7 -12 -3 -18 5 -9 3 -9 -8 0 -12 10 -18 10
-28 0 -10 -9 -10 -7 0 10 9 16 16 19 21 10 5 -7 8 -8 8 -1 0 21 -14 24 -38 8
-13 -9 -22 -11 -18 -6 3 6 2 13 -4 17 -6 4 -8 10 -5 15 3 4 -6 7 -20 6 -13 -2
-23 0 -20 4 2 3 -5 12 -15 20 -10 8 -16 18 -13 23 3 6 1 7 -6 3 -9 -6 -9 -12
1 -24 11 -15 11 -15 -3 -5 -9 7 -19 10 -22 7 -3 -4 -4 6 -1 22 2 16 1 25 -3
19 -12 -15 -33 -17 -33 -2 0 8 -4 7 -10 -3 -6 -10 -10 -11 -10 -2 0 6 -7 12
-16 12 -8 0 -12 5 -8 11 3 6 -1 10 -12 9 -33 -4 -45 0 -39 10 3 6 0 10 -9 10
-8 0 -17 -6 -19 -12 -4 -10 -6 -10 -6 0 -1 6 -8 12 -16 12 -13 0 -19 11 -16
32 1 8 -20 5 -38 -6 -10 -7 -12 -3 -6 15 4 17 3 20 -3 10 -7 -9 -11 -10 -17
-2 -5 9 -11 9 -23 -1 -9 -8 -13 -8 -9 -2 4 7 0 15 -9 18 -8 3 -12 2 -9 -3 3
-5 0 -13 -6 -17 -8 -4 -9 -3 -5 4 4 7 2 12 -4 12 -6 0 -8 6 -5 13 4 6 -1 3
-11 -8 -16 -20 -16 -20 -11 2 4 18 1 21 -21 17 -15 -3 -30 -11 -34 -17 -5 -7
-8 -8 -8 -2 0 6 6 17 13 24 10 11 9 12 -2 6 -11 -6 -13 -4 -8 11 6 16 4 15
-10 -3 -18 -22 -18 -22 -43 -3 -14 11 -29 20 -35 20 -5 0 -4 -4 3 -9 11 -7 10
-9 -3 -14 -9 -4 -13 -3 -10 2 3 5 1 12 -5 16 -6 4 -8 10 -6 14 3 4 -1 8 -9 8
-11 0 -12 -4 -4 -13 7 -8 6 -14 -2 -20 -8 -5 -9 -3 -4 6 6 10 4 12 -8 7 -10
-4 -14 -2 -11 7 3 7 -2 13 -10 13 -8 0 -13 -4 -10 -9 3 -4 0 -8 -7 -8 -6 0 -9
8 -7 18 4 15 0 18 -23 17 -15 -1 -34 -7 -43 -14 -13 -11 -17 -11 -22 3 -3 9
-10 16 -16 16 -5 0 -7 -4 -4 -9 7 -11 -13 -9 -33 4 -10 5 -16 4 -19 -3 -5 -17
-19 -15 -19 3 0 8 3 12 7 10 3 -2 12 0 18 4 8 4 -2 8 -23 8 -19 0 -35 -4 -35
-9 0 -5 5 -6 12 -2 6 4 8 3 5 -4 -11 -16 -56 9 -50 28 4 12 3 12 -5 1 -6 -8
-15 -10 -23 -6 -8 6 -11 4 -7 -7 4 -9 0 -15 -8 -15 -8 0 -13 6 -10 13 4 10 -1
11 -19 4 -16 -6 -27 -6 -31 2 -5 7 -3 8 6 3 9 -5 11 -4 6 3 -11 18 -26 14 -26
-5 -1 -16 -2 -16 -15 1 -8 11 -15 14 -15 8 0 -7 -7 -12 -16 -12 -14 0 -14 3
-4 15 17 20 8 19 -13 -2z m-217 -13 c0 -5 -5 -10 -11 -10 -5 0 -7 5 -4 10 3 6
8 10 11 10 2 0 4 -4 4 -10z m-290 -36 c0 -8 -19 -13 -24 -6 -3 5 1 9 9 9 8 0
15 -2 15 -3z m913 -11 c-4 -10 -9 -11 -19 -2 -18 15 -18 15 5 15 11 0 17 -5
14 -13z m-1298 -83 c-3 -5 -1 -10 6 -10 7 0 10 -3 6 -6 -9 -9 -28 6 -22 17 4
5 8 9 11 9 3 0 2 -4 -1 -10z m1653 -25 c-3 -3 -9 2 -12 12 -6 14 -5 15 5 6 7
-7 10 -15 7 -18z m-1749 -33 c-1 -15 -2 -15 -6 1 -2 9 -9 14 -15 11 -7 -4 -8
-2 -4 5 10 15 26 4 25 -17z m-225 -90 c3 -5 -1 -9 -9 -9 -8 0 -12 4 -9 9 3 4
7 8 9 8 2 0 6 -4 9 -8z m2535 -148 c14 -12 -19 -1 -35 12 -18 14 -18 14 6 3
14 -6 27 -13 29 -15z m35 -40 c3 -8 2 -12 -4 -9 -6 3 -10 10 -10 16 0 14 7 11
14 -7z m80 -60 c3 -8 2 -12 -4 -9 -6 3 -10 10 -10 16 0 14 7 11 14 -7z m109
-67 c4 3 7 4 7 1 0 -3 -8 -12 -17 -19 -12 -10 -14 -10 -9 -1 4 7 1 15 -8 18
-9 3 -16 11 -16 17 0 5 8 3 18 -6 10 -10 22 -14 25 -10z m-3349 -105 c3 -5 -1
-9 -9 -9 -8 0 -12 4 -9 9 3 4 7 8 9 8 2 0 6 -4 9 -8z m3454 -17 c-3 -3 -9 2
-12 12 -6 14 -5 15 5 6 7 -7 10 -15 7 -18z m-3691 -240 c0 -8 -4 -12 -9 -9 -5
3 -6 10 -3 15 9 13 12 11 12 -6z m3944 -47 c-10 -11 -11 -9 -5 6 6 15 4 17 -6
11 -9 -6 -11 -4 -5 4 5 9 10 10 18 2 8 -8 7 -14 -2 -23z m-4171 -328 c-8 -5
-19 -10 -25 -10 -5 0 -3 5 5 10 8 5 20 10 25 10 6 0 3 -5 -5 -10z m-95 -210
c-17 -19 -41 -18 -29 1 3 5 9 7 14 4 5 -3 11 -1 15 5 3 5 9 10 12 10 3 0 -2
-9 -12 -20z m-107 -295 c-3 -3 -9 2 -12 12 -6 14 -5 15 5 6 7 -7 10 -15 7 -18z
m4792 -106 c0 -5 5 -7 12 -3 7 4 8 3 4 -5 -6 -9 -11 -9 -22 0 -17 14 -18 19
-4 19 6 0 10 -5 10 -11z m-4835 -149 c3 -6 -1 -7 -9 -4 -18 7 -21 14 -7 14 6
0 13 -4 16 -10z m-13 -39 c-5 -3 -8 -14 -6 -23 1 -10 -1 -20 -5 -22 -4 -3 -7
10 -7 29 0 24 4 31 14 27 8 -2 9 -8 4 -11z m4891 -18 c-3 -7 -6 -13 -8 -13 -2
0 -5 6 -8 13 -3 8 1 14 8 14 7 0 11 -6 8 -14z m11 -69 c3 -8 2 -12 -4 -9 -6 3
-10 10 -10 16 0 14 7 11 14 -7z m-4929 -113 c3 -5 2 -12 -3 -15 -5 -3 -9 1 -9
9 0 17 3 19 12 6z m4935 -445 c0 -2 -7 -9 -15 -16 -13 -11 -14 -10 -9 4 5 14
24 23 24 12z m-4900 -57 c0 -5 -4 -9 -8 -9 -5 0 -9 7 -9 15 0 8 4 12 9 9 4 -3
8 -9 8 -15z m4849 -203 c-3 -3 -11 5 -18 17 -13 21 -12 21 5 5 10 -10 16 -20
13 -22z m-4812 -13 c-4 -3 -2 -11 3 -18 7 -8 5 -12 -4 -12 -8 0 -12 7 -11 16
5 22 4 21 12 21 3 0 3 -3 0 -7z m4737 -254 c-3 -5 -10 -7 -15 -3 -5 3 -7 10
-3 15 3 5 10 7 15 3 5 -3 7 -10 3 -15z m-4629 -95 c9 -15 12 -23 6 -20 -11 7
-35 46 -28 46 3 0 12 -12 22 -26z m4499 -172 c3 -5 -1 -9 -9 -9 -8 0 -12 4 -9
9 3 4 7 8 9 8 2 0 6 -4 9 -8z m-154 -296 c0 -2 -9 -6 -20 -9 -11 -3 -18 -1
-14 4 5 9 34 13 34 5z m-185 -226 c-3 -5 -12 -10 -18 -10 -7 0 -6 4 3 10 19
12 23 12 15 0z m-3268 -425 c0 -8 -4 -12 -9 -9 -5 3 -6 10 -3 15 9 13 12 11
12 -6z m2532 -154 c7 -5 9 -11 5 -14 -5 -3 -15 1 -22 9 -14 16 -5 18 17 5z
m-2075 -80 c-9 -9 -34 -9 -34 -1 0 5 9 8 20 7 10 -1 17 -3 14 -6z m206 -66 c0
-2 -9 -9 -20 -15 -12 -6 -20 -7 -20 -1 0 5 8 12 18 14 9 3 18 5 20 6 1 0 2 -1
2 -4z m1500 -10 c0 -8 -2 -15 -4 -15 -2 0 -6 7 -10 15 -3 8 -1 15 4 15 6 0 10
-7 10 -15z m-1405 -35 c3 -5 1 -10 -4 -10 -6 0 -11 5 -11 10 0 6 2 10 4 10 3
0 8 -4 11 -10z m1189 -31 c-3 -5 -10 -7 -15 -3 -5 3 -7 10 -3 15 3 5 10 7 15
3 5 -3 7 -10 3 -15z m-104 -9 c0 -5 -2 -10 -4 -10 -3 0 -8 5 -11 10 -3 6 -1
10 4 10 6 0 11 -4 11 -10z m-123 -15 c0 -8 -4 -12 -9 -9 -5 3 -6 10 -3 15 9
13 12 11 12 -6z m-27 0 c0 -2 -10 -9 -22 -15 -22 -11 -22 -10 -4 4 21 17 26
19 26 11z"/>
<path d="M2076 5003 c-6 -14 -5 -15 5 -6 7 7 10 15 7 18 -3 3 -9 -2 -12 -12z"/>
<path d="M1980 4981 c0 -7 -5 -9 -12 -5 -7 5 -8 3 -3 -5 5 -9 10 -10 18 -2 6
6 8 14 4 18 -4 3 -7 1 -7 -6z"/>
<path d="M3221 4954 c0 -11 3 -14 6 -6 3 7 2 16 -1 19 -3 4 -6 -2 -5 -13z"/>
<path d="M3737 4759 c7 -7 15 -10 18 -7 3 3 -2 9 -12 12 -14 6 -15 5 -6 -5z"/>
<path d="M1290 4689 c0 -5 5 -7 10 -4 6 3 10 8 10 11 0 2 -4 4 -10 4 -5 0 -10
-5 -10 -11z"/>
<path d="M1123 4595 c0 -8 4 -12 9 -9 5 3 6 10 3 15 -9 13 -12 11 -12 -6z"/>
<path d="M1050 4529 c0 -5 5 -7 10 -4 6 3 10 8 10 11 0 2 -4 4 -10 4 -5 0 -10
-5 -10 -11z"/>
<path d="M4225 4400 c3 -5 8 -10 11 -10 2 0 4 5 4 10 0 6 -5 10 -11 10 -5 0
-7 -4 -4 -10z"/>
<path d="M734 4259 c-8 -14 14 -19 25 -6 8 10 7 14 -5 14 -8 0 -17 -4 -20 -8z"/>
<path d="M4621 3954 c0 -11 3 -14 6 -6 3 7 2 16 -1 19 -3 4 -6 -2 -5 -13z"/>
<path d="M4672 3891 c-11 -7 -11 -9 0 -14 9 -3 15 1 15 9 0 8 -1 14 -1 14 -1
0 -7 -4 -14 -9z"/>
<path d="M4686 3833 c-10 -25 7 -35 30 -17 18 14 18 15 -4 4 -22 -11 -23 -10
-17 9 8 25 0 28 -9 4z"/>
<path d="M4815 3600 c-3 -5 -1 -10 4 -10 6 0 11 5 11 10 0 6 -2 10 -4 10 -3 0
-8 -4 -11 -10z"/>
<path d="M4825 3570 c-3 -6 1 -7 9 -4 18 7 21 14 7 14 -6 0 -13 -4 -16 -10z"/>
<path d="M230 3460 c0 -5 5 -10 11 -10 5 0 7 5 4 10 -3 6 -8 10 -11 10 -2 0
-4 -4 -4 -10z"/>
<path d="M4895 3400 c-3 -5 -1 -10 4 -10 6 0 11 5 11 10 0 6 -2 10 -4 10 -3 0
-8 -4 -11 -10z"/>
<path d="M4963 3155 c0 -8 4 -12 9 -9 4 3 8 0 8 -7 0 -7 2 -10 5 -7 7 7 -5 38
-14 38 -4 0 -8 -7 -8 -15z"/>
<path d="M135 3140 c-3 -5 -2 -10 4 -10 5 0 13 5 16 10 3 6 2 10 -4 10 -5 0
-13 -4 -16 -10z"/>
<path d="M75 2749 c-4 -6 -5 -12 -2 -15 2 -3 7 2 10 11 7 17 1 20 -8 4z"/>
<path d="M4982 2038 c2 -6 11 -13 19 -16 12 -3 12 -2 0 6 -11 8 -11 10 0 15
10 4 8 6 -4 6 -10 1 -17 -4 -15 -11z"/>
<path d="M4965 1960 c-3 -5 -2 -10 4 -10 5 0 13 5 16 10 3 6 2 10 -4 10 -5 0
-13 -4 -16 -10z"/>
<path d="M4805 1520 c-3 -5 -2 -10 4 -10 5 0 13 5 16 10 3 6 2 10 -4 10 -5 0
-13 -4 -16 -10z"/>
<path d="M4670 1265 c-8 -9 -8 -15 -2 -15 12 0 26 19 19 26 -2 2 -10 -2 -17
-11z"/>
<path d="M470 1196 c0 -2 7 -7 16 -10 8 -3 12 -2 9 4 -6 10 -25 14 -25 6z"/>
<path d="M4471 976 c-9 -11 -9 -16 1 -22 7 -4 10 -4 6 1 -4 4 -3 14 3 22 6 7
9 13 6 13 -2 0 -10 -6 -16 -14z"/>
<path d="M630 976 c0 -2 7 -7 16 -10 8 -3 12 -2 9 4 -6 10 -25 14 -25 6z"/>
<path d="M4365 860 c-3 -5 -1 -10 4 -10 6 0 11 5 11 10 0 6 -2 10 -4 10 -3 0
-8 -4 -11 -10z"/>
<path d="M4290 785 c-9 -10 -9 -15 -1 -15 6 0 11 5 11 11 0 5 5 7 12 3 7 -4 8
-3 4 4 -9 15 -11 15 -26 -3z"/>
<path d="M913 685 c0 -8 4 -12 9 -9 5 3 6 10 3 15 -9 13 -12 11 -12 -6z"/>
<path d="M4174 679 c-4 -7 -3 -9 4 -5 5 3 13 0 15 -6 4 -9 6 -10 6 -1 1 17
-16 25 -25 12z"/>
<path d="M4127 639 c7 -7 15 -10 18 -7 3 3 -2 9 -12 12 -14 6 -15 5 -6 -5z"/>
<path d="M4080 600 c-8 -5 -10 -10 -5 -10 6 0 17 5 25 10 8 5 11 10 5 10 -5 0
-17 -5 -25 -10z"/>
<path d="M3750 380 c0 -5 5 -10 11 -10 5 0 7 5 4 10 -3 6 -8 10 -11 10 -2 0
-4 -4 -4 -10z"/>
<path d="M3573 285 c0 -8 4 -12 9 -9 5 3 6 10 3 15 -9 13 -12 11 -12 -6z"/>
<path d="M3425 220 c-3 -6 1 -7 9 -4 18 7 21 14 7 14 -6 0 -13 -4 -16 -10z"/>
<path d="M1863 165 c0 -8 4 -12 9 -9 5 3 6 10 3 15 -9 13 -12 11 -12 -6z"/>
<path d="M2053 127 c0 -8 6 -14 14 -14 9 0 10 4 2 14 -6 7 -12 13 -14 13 -1 0
-2 -6 -2 -13z"/>
<path d="M2950 109 c0 -15 18 -19 23 -6 3 8 -1 14 -9 14 -8 0 -14 -4 -14 -8z"/>
<path d="M2190 95 c0 -7 30 -13 34 -7 3 4 -4 9 -15 9 -10 1 -19 0 -19 -2z"/>
</g>
</svg>
